<svg width="680" height="680" viewBox="0 0 680 680" xmlns="http://www.w3.org/2000/svg">
  <title>Crescent black gold network logo</title>
  <defs>
    <radialGradient id="moonB" cx="32%" cy="28%" r="68%">
      <stop offset="0%"   stop-color="#3a3a3a"/>
      <stop offset="40%"  stop-color="#1a1a1a"/>
      <stop offset="100%" stop-color="#000000"/>
    </radialGradient>
    <radialGradient id="nG1" cx="28%" cy="28%" r="72%">
      <stop offset="0%"   stop-color="#fff8cc"/>
      <stop offset="45%"  stop-color="#d4a017"/>
      <stop offset="100%" stop-color="#6a4400"/>
    </radialGradient>
    <radialGradient id="nG2" cx="28%" cy="28%" r="72%">
      <stop offset="0%"   stop-color="#fffadd"/>
      <stop offset="45%"  stop-color="#c9a84c"/>
      <stop offset="100%" stop-color="#7a5c10"/>
    </radialGradient>
    <mask id="cmask">
      <circle cx="300" cy="340" r="155" fill="white"/>
      <circle cx="358" cy="313" r="133" fill="black"/>
    </mask>
  </defs>

  <circle cx="300" cy="340" r="155" fill="url(#moonB)" mask="url(#cmask)"/>

  <circle cx="440" cy="175" r="24" fill="url(#nG1)" stroke="#ffd700" stroke-width="2"/>
  <circle cx="431" cy="166" r="8"  fill="#fffbe0" opacity="0.55"/>

  <circle cx="516" cy="143" r="17" fill="url(#nG2)" stroke="#f0c030" stroke-width="1.8"/>
  <circle cx="508" cy="136" r="5"  fill="#fffbe0" opacity="0.5"/>

  <circle cx="548" cy="248" r="13" fill="url(#nG1)" stroke="#f0c030" stroke-width="1.5"/>
  <circle cx="541" cy="241" r="4"  fill="#fffbe0" opacity="0.5"/>

  <circle cx="516" cy="342" r="11" fill="url(#nG2)" stroke="#f0c030" stroke-width="1.4"/>
  <circle cx="510" cy="336" r="3.5" fill="#fffbe0" opacity="0.5"/>

  <circle cx="465" cy="420" r="16" fill="url(#nG1)" stroke="#ffd700" stroke-width="1.8"/>
  <circle cx="457" cy="412" r="5"  fill="#fffbe0" opacity="0.5"/>

  <line x1="440" y1="175" x2="516" y2="143" stroke="#c9a84c" stroke-width="2.2" opacity="0.9"/>
  <line x1="516" y1="143" x2="548" y2="248" stroke="#c9a84c" stroke-width="1.8" opacity="0.8"/>
  <line x1="548" y1="248" x2="516" y2="342" stroke="#c9a84c" stroke-width="1.8" opacity="0.8"/>
  <line x1="516" y1="342" x2="465" y2="420" stroke="#c9a84c" stroke-width="1.8" opacity="0.8"/>
  <line x1="440" y1="175" x2="548" y2="248" stroke="#c9a84c" stroke-width="1"   opacity="0.3"/>
  <line x1="516" y1="143" x2="516" y2="342" stroke="#c9a84c" stroke-width="0.8" opacity="0.2"/>

  <circle cx="568" cy="193" r="5" fill="#c9a84c" opacity="0.6"/>
  <circle cx="562" cy="298" r="4" fill="#c9a84c" opacity="0.5"/>
  <line x1="548" y1="248" x2="568" y2="193" stroke="#c9a84c" stroke-width="1" opacity="0.4"/>
  <line x1="548" y1="248" x2="562" y2="298" stroke="#c9a84c" stroke-width="1" opacity="0.4"/>
</svg>
